<?xml version="1.0" encoding="utf-8"?>
<!-- Generator: Adobe Illustrator 28.0.0, SVG Export Plug-In . SVG Version: 6.00 Build 0)  -->
<svg version="1.1" id="Layer_1" xmlns:xodm="http://www.corel.com/coreldraw/odm/2003"
	 xmlns="http://www.w3.org/2000/svg" xmlns:xlink="http://www.w3.org/1999/xlink" x="0px" y="0px" viewBox="0 0 151.4 30.5"
	 style="enable-background:new 0 0 151.4 30.5;" xml:space="preserve">
<style type="text/css">
	.st0{fill:#FFFFFF;}
	.st1{fill:#945832;}
	.st2{fill:#935833;}
	.st3{fill:#945731;}
	.st4{fill:#935732;}
	.st5{fill:#825639;}
	.st6{fill:#E2D6C9;}
	.st7{fill:#DDD3C6;}
	.st8{fill:#E3D5C2;}
	.st9{fill:#DDCDB8;}
	.st10{fill:#E0D6CC;}
	.st11{fill:#DBD1CA;}
	.st12{fill:#DBC9B7;}
	.st13{fill:#D7C7B8;}
	.st14{fill:#D7C7B5;}
	.st15{fill:#C7B4A1;}
	.st16{fill:#D4C2B0;}
	.st17{fill:#DFD8CC;}
	.st18{fill:#DBCBBE;}
	.st19{fill:#CCB6A0;}
	.st20{fill:#DBC8B3;}
	.st21{fill:#D7CDC2;}
	.st22{fill:#D9C5B0;}
	.st23{fill:#925631;}
	.st24{fill:#DBD0C3;}
	.st25{fill:#D2C4B2;}
	.st26{fill:#CFBFAD;}
	.st27{fill:#D0C1B0;}
	.st28{fill:#DFD8CB;}
	.st29{fill:#EAE3D7;}
	.st30{fill:#C6AD96;}
	.st31{fill:#DFD6C8;}
	.st32{fill:#D2C7B8;}
	.st33{fill:#BEAA99;}
	.st34{fill:#F60403;}
	.st35{fill:#D6D6D6;}
</style>
<g>
	<g>
		<g>
			<path class="st0" d="M3.5,28.6c-0.8,0-1.5-0.1-2-0.3c-0.5-0.2-0.9-0.5-1.1-0.9c-0.2-0.4-0.3-0.8-0.2-1.2c0-0.1,0-0.1,0.1-0.2
				C0.4,26,0.4,26,0.5,26h1.8c0.1,0,0.2,0,0.3,0.1c0.1,0,0.1,0.1,0.2,0.1c0,0.1,0.1,0.2,0.2,0.2c0.1,0.1,0.2,0.1,0.3,0.2
				c0.1,0,0.3,0.1,0.5,0.1c0.4,0,0.6,0,0.9-0.1c0.2-0.1,0.3-0.2,0.4-0.4c0-0.1,0-0.2-0.1-0.3c-0.1-0.1-0.3-0.2-0.5-0.2
				c-0.2-0.1-0.6-0.1-1-0.2c-0.6-0.1-1.1-0.3-1.4-0.5c-0.4-0.2-0.6-0.5-0.8-0.9c-0.2-0.4-0.2-0.8-0.1-1.3c0.2-0.7,0.6-1.3,1.2-1.8
				c0.6-0.4,1.5-0.6,2.5-0.6c0.5,0,1,0.1,1.4,0.2c0.4,0.1,0.8,0.3,1,0.6c0.3,0.2,0.5,0.5,0.6,0.8C8,22.1,8,22.4,8,22.6
				c0,0.1,0,0.1-0.1,0.2c-0.1,0.1-0.1,0.1-0.2,0.1H5.8c-0.1,0-0.2,0-0.2,0c-0.1,0-0.1-0.1-0.2-0.2c0-0.1-0.1-0.2-0.2-0.3
				c-0.1-0.1-0.3-0.1-0.5-0.1c-0.3,0-0.5,0-0.6,0.1c-0.2,0.1-0.3,0.2-0.3,0.4c0,0.1,0,0.2,0.1,0.3c0.1,0.1,0.2,0.2,0.4,0.2
				c0.2,0.1,0.5,0.1,0.9,0.2c0.7,0.1,1.3,0.3,1.7,0.5c0.4,0.2,0.7,0.5,0.8,0.9c0.1,0.4,0.2,0.8,0.1,1.3C7.4,27,6.9,27.6,6.3,28
				C5.6,28.4,4.7,28.6,3.5,28.6z"/>
			<path class="st0" d="M11.4,28.5c-0.5,0-1-0.1-1.4-0.2c-0.4-0.2-0.7-0.4-0.8-0.8C9,27.2,9,26.7,9.1,26.1l0.4-1.9H8.6
				c-0.1,0-0.2,0-0.2-0.1S8.4,24,8.4,24l0.2-1.2c0-0.1,0.1-0.2,0.1-0.2s0.2-0.1,0.2-0.1h0.9l0.4-1.9c0-0.1,0.1-0.2,0.1-0.2
				c0.1-0.1,0.1-0.1,0.2-0.1h1.7c0.1,0,0.2,0,0.2,0.1c0,0.1,0.1,0.1,0.1,0.2l-0.4,1.9h1.4c0.1,0,0.1,0,0.2,0.1c0,0.1,0.1,0.1,0,0.2
				L13.6,24c0,0.1-0.1,0.2-0.1,0.2c-0.1,0.1-0.2,0.1-0.2,0.1h-1.5l-0.4,1.7c0,0.1,0,0.3,0,0.4c0,0.1,0.1,0.2,0.1,0.2
				c0.1,0.1,0.2,0.1,0.3,0.1h1c0.1,0,0.2,0,0.2,0.1c0,0.1,0.1,0.1,0,0.2l-0.3,1.3c0,0.1-0.1,0.2-0.1,0.2c-0.1,0.1-0.1,0.1-0.2,0.1
				H11.4z"/>
			<path class="st0" d="M14,28.5c-0.1,0-0.2,0-0.2-0.1c0-0.1-0.1-0.1,0-0.2l1.1-5.4c0-0.1,0.1-0.2,0.1-0.2s0.2-0.1,0.2-0.1h1.7
				c0.1,0,0.1,0,0.2,0.1c0,0.1,0.1,0.1,0,0.2L17,23.2c0.2-0.2,0.4-0.4,0.7-0.5c0.3-0.1,0.6-0.2,1-0.2h0.7c0.1,0,0.2,0,0.2,0.1
				c0,0.1,0.1,0.1,0,0.2l-0.3,1.5c0,0.1-0.1,0.2-0.1,0.2c-0.1,0.1-0.1,0.1-0.2,0.1h-1.3c-0.3,0-0.5,0.1-0.7,0.2
				c-0.2,0.1-0.3,0.4-0.3,0.6l-0.6,2.8c0,0.1-0.1,0.2-0.1,0.2c-0.1,0.1-0.1,0.1-0.2,0.1H14z"/>
			<path class="st0" d="M22.3,28.6c-0.6,0-1.2-0.1-1.6-0.3c-0.4-0.2-0.7-0.6-0.9-1c-0.2-0.4-0.2-1,0-1.7c0,0,0-0.1,0-0.1
				c0-0.1,0-0.1,0-0.1c0.2-0.6,0.4-1.2,0.8-1.6c0.4-0.4,0.8-0.8,1.3-1c0.5-0.2,1.1-0.3,1.7-0.3c0.7,0,1.3,0.1,1.7,0.4
				c0.4,0.3,0.7,0.7,0.8,1.1c0.1,0.5,0.1,1,0,1.6l-0.1,0.3c0,0.1-0.1,0.1-0.1,0.2c-0.1,0.1-0.2,0.1-0.2,0.1h-3.6c0,0,0,0.1,0,0.1
				c0,0.2,0,0.3,0,0.5c0,0.1,0.1,0.3,0.2,0.3c0.1,0.1,0.2,0.1,0.4,0.1c0.1,0,0.2,0,0.3,0c0.1,0,0.1-0.1,0.2-0.1
				c0.1-0.1,0.1-0.1,0.2-0.1c0.1-0.1,0.2-0.1,0.2-0.1c0,0,0.1,0,0.2,0h1.8c0.1,0,0.1,0,0.2,0.1c0,0,0,0.1,0,0.2
				c0,0.1-0.1,0.3-0.3,0.5S25,27.8,24.7,28c-0.3,0.2-0.6,0.3-1,0.5C23.3,28.6,22.8,28.6,22.3,28.6z M22.4,24.8h1.4v0
				c0-0.2,0.1-0.4,0-0.5c0-0.1-0.1-0.3-0.2-0.3c-0.1-0.1-0.2-0.1-0.4-0.1c-0.2,0-0.3,0-0.4,0.1c-0.1,0.1-0.2,0.2-0.3,0.3
				C22.5,24.4,22.5,24.6,22.4,24.8L22.4,24.8z"/>
			<path class="st0" d="M33.7,22.6c0-0.1-0.1-0.1-0.2-0.1h-1.6c-0.1,0-0.2,0-0.2,0.1c-0.1,0.1-0.1,0.1-0.1,0.2L31.4,23
				c-0.1-0.2-0.3-0.3-0.6-0.5c-0.2-0.1-0.6-0.2-1-0.2c-0.4,0-0.7,0.1-1,0.2c-0.3,0.1-0.6,0.3-0.9,0.5c-0.3,0.2-0.5,0.5-0.7,0.8
				c-0.2,0.3-0.3,0.7-0.4,1.2c0,0.2-0.1,0.3-0.1,0.4c0,0.1-0.1,0.3-0.1,0.4c-0.1,0.5-0.1,0.9,0,1.2c0.1,0.3,0.2,0.6,0.4,0.8
				c0.2,0.2,0.4,0.4,0.7,0.5s0.6,0.2,1,0.2c0.4,0,0.8-0.1,1-0.2c0.3-0.1,0.5-0.3,0.8-0.5l-0.1,0.3c0,0.1,0,0.2,0.1,0.2
				c0,0.1,0.1,0.1,0.2,0.1h1.6c0.1,0,0.2,0,0.2-0.1c0.1-0.1,0.1-0.1,0.1-0.2l1.1-5.4C33.7,22.7,33.7,22.6,33.7,22.6z"/>
			<path class="st0" d="M34,28.5c-0.1,0-0.2,0-0.2-0.1s-0.1-0.1,0-0.2l1.1-5.4c0-0.1,0.1-0.2,0.1-0.2c0.1-0.1,0.2-0.1,0.2-0.1h1.6
				c0.1,0,0.1,0,0.2,0.1c0,0.1,0.1,0.1,0,0.2L37,23.2c0.1-0.1,0.3-0.2,0.4-0.4c0.2-0.1,0.3-0.2,0.6-0.3c0.2-0.1,0.5-0.1,0.8-0.1
				c0.5,0,0.8,0.1,1.1,0.3s0.5,0.4,0.6,0.7c0.2-0.3,0.5-0.5,0.8-0.7c0.3-0.2,0.7-0.3,1.1-0.3c0.4,0,0.8,0.1,1.1,0.3
				c0.3,0.2,0.5,0.5,0.6,0.8s0.1,0.9,0,1.5l-0.7,3.3c0,0.1-0.1,0.2-0.1,0.2c-0.1,0.1-0.1,0.1-0.2,0.1h-1.7c-0.1,0-0.2,0-0.2-0.1
				c0-0.1-0.1-0.1,0-0.2l0.7-3.2c0-0.2,0-0.4,0-0.5c0-0.1-0.1-0.2-0.2-0.3c-0.1-0.1-0.2-0.1-0.3-0.1c-0.1,0-0.2,0-0.3,0.1
				c-0.1,0.1-0.2,0.1-0.3,0.3c-0.1,0.1-0.2,0.3-0.2,0.5l-0.7,3.2c0,0.1-0.1,0.2-0.1,0.2c-0.1,0.1-0.1,0.1-0.2,0.1h-1.7
				c-0.1,0-0.2,0-0.2-0.1s-0.1-0.1,0-0.2l0.7-3.2c0-0.2,0-0.4,0-0.5c0-0.1-0.1-0.2-0.2-0.3c-0.1-0.1-0.2-0.1-0.3-0.1
				c-0.1,0-0.2,0-0.4,0.1c-0.1,0.1-0.2,0.2-0.3,0.3c-0.1,0.1-0.2,0.3-0.2,0.5l-0.7,3.2c0,0.1-0.1,0.2-0.1,0.2
				c-0.1,0.1-0.1,0.1-0.2,0.1H34z"/>
		</g>
		<g>
			<path class="st1" d="M11.5,8c0.5-0.4,1-0.9,1.4-1.3C13.5,6,14,5.2,14.4,4.3c0.1-0.3,0.3-0.5,0.1-0.9c0-0.1,0-0.4,0.1-0.4
				c0.3-0.1,0.4,0,0.5,0.1c0.1,0.1,0.3,0.3,0.3,0.4c0.1,0.4,0.4,0.6,0.6,0.8c0.6,0.3,1.3,0.6,1.9,0.8c0.1,0,0.3,0.1,0.4-0.1
				c0.1-0.3,0.5-0.3,0.6,0c0.3,0.5,0.6,0.5,1,0.6c0.6,0.1,1.1,0.1,1.8,0.3c0.1,0,0.3,0,0.4-0.1c0.3-0.4,0.6-0.4,0.8,0
				s0.4,0.4,0.8,0.4c0.9,0,1.8,0,2.8,0c0.3,0,0.4,0,0.4-0.3c0.1-0.1,0.3-0.4,0.5-0.3c0.3,0,0.4,0.1,0.4,0.4c0,0.1,0.1,0.1,0.3,0.1
				c0.9,0,1.8-0.3,2.6-0.3c0.1,0,0.3-0.1,0.3-0.3c0.1-0.3,0.3-0.4,0.5-0.5c0.3,0,0.4,0.1,0.5,0.4c0,0.1,0.1,0.1,0.3,0
				c0.8-0.3,1.4-0.4,2.1-0.6c0.1,0,0.3-0.1,0.3-0.3c0-0.3,0.1-0.4,0.3-0.5c0.3-0.3,0.5-0.3,0.6,0c0.1,0.3,0.3,0.1,0.4,0.1
				c0.8-0.4,1.4-0.9,2-1.4c0.1-0.1,0.3-0.4,0.4-0.5c0-0.1,0.1-0.3,0.3-0.4c0.3-0.1,0.5,0,0.6,0.3c0.1,1.6,1,2.8,2,4
				c0,0.1,0.1,0.1,0.1,0.3c-1.3-0.3-2.5-0.1-3.9,0.4c0.1-0.6,0.4-1.3,0.6-1.8c0-0.1,0.1-0.3,0.3-0.4c0.3-0.4,0.1-0.6-0.4-0.8
				c-0.6-0.1-1.1,0.1-1.6,0.4c-1.1,0.8-2,1.9-2.6,3c-0.1,0.3-0.4,0.4-0.6,0.5C29.4,8.4,26,8.5,22.6,8.4c-1.6,0-3.3-0.1-4.9-0.3
				c-0.1,0-0.3,0-0.4-0.3c-0.9-1.5-3.4-1.5-4.4,0c-0.1,0.1-0.3,0.3-0.4,0.3c-0.4,0-0.8,0-1.3,0C11.5,8.1,11.5,8,11.5,8z"/>
			<path class="st2" d="M40.6,18.2c-0.3,0.3-0.4,0.4-0.6,0.6c-1.6,1.5-3.9,0.9-4.5-1.3c-0.3-1-0.4-2-0.1-3c0.4-2.4,1.4-4.4,3-6.1
				C38.5,8.2,38.7,8.1,39,8c0.5-0.4,1-0.8,1.8-0.5c0.9,0.3,1.6,0.6,2.1,1.5c0.1,0.3,0.3,0.5,0.3,0.8c0,0.8-0.1,1.4-0.4,2
				c-0.3,0.5-0.5,0.6-0.9,0.4c-0.4-0.1-0.6-0.5-0.6-1c0-0.1,0.1-0.3,0.1-0.5c0.1-0.4,0.1-0.8,0.1-1.1c0-0.1,0-0.4-0.1-0.5
				c-0.4-0.1-0.5,0.1-0.6,0.1c-1,0.8-1.8,1.8-2.3,2.9c-0.8,1.4-1.3,2.9-1.1,4.4c0,0.5,0.1,0.9,0.3,1.3c0.1,0.3,0.4,0.4,0.6,0.3
				c0.4-0.1,0.8-0.4,1-0.8c0.6-0.5,1.1-1.3,1.8-2c-0.5,0.1-1,0.1-1.5,0.1c-0.6,0-1.1-0.4-1.3-0.9c-0.1-0.3,0-0.5,0.4-0.6
				c1.5-0.3,3.2-0.5,4.7-0.6c0.6,0,1.3,0.4,1.4,1c0.1,0.4,0,0.5-0.4,0.5c-0.3,0-0.6-0.1-0.9,0.1c-0.1,0.3-0.1,0.5-0.3,0.8
				c-0.4,1.6-0.9,3.3-1,4.9c0,0.4-0.3,0.5-0.6,0.5c-0.5-0.1-0.9-0.6-1-1.1C40.4,19.5,40.6,18.8,40.6,18.2z"/>
			<path class="st3" d="M3.6,20c-1.1,0-2.1-0.3-2.9-1.1c-0.4-0.4-0.8-0.9-0.6-1.5c0-0.3,0.1-0.4,0.4-0.3c1.1,0.9,2.4,0.9,3.7,0.6
				c1-0.1,1.9-0.4,2.6-0.9c0.1-0.1,0.4-0.1,0.4-0.4c0-0.1-0.3-0.3-0.5-0.4c-0.8-0.3-1.4-0.5-2.1-0.9c-0.6-0.3-1.3-0.6-1.8-1
				c-0.6-0.5-1.1-1.1-1.3-2c-0.1-0.9,0.1-1.6,0.8-2.3c1-1.3,2.3-2,3.8-2.5C6.6,7.1,7.1,7,7.8,7C8.2,7,8.6,7.1,9,7.5
				c0.3,0.4,0.5,0.8,0.6,1.3c0.3,0.4,0.1,0.8,0,1.3c-0.4,1-1,1.8-1.6,2.5c-0.1,0.1-0.4,0.1-0.6,0C7,12.3,6.7,11.8,7,11.3
				c0.3-0.6,0.6-1.1,0.8-1.8c0-0.1,0.1-0.3,0-0.4c-0.1-0.1-0.3,0-0.4,0c-1.6,0.5-3.2,1.3-4.3,2.5c-0.4,0.4-0.4,0.5,0.1,0.8
				c0.8,0.5,1.6,0.9,2.4,1.3s1.4,0.8,2,1.3c0.5,0.5,0.8,1,0.9,1.6c0.3,0.8,0,1.4-0.5,1.9c-0.8,0.8-1.8,1.1-2.8,1.4
				C4.8,19.8,4.2,20,3.6,20z"/>
			<path class="st4" d="M36.5,5c0.3-0.3,0.5-0.5,0.9-0.6c0.1,0,0.3,0,0.4,0.1c0.1,0.1,0,0.3-0.1,0.3c-1.8,2.4-2.5,5.2-3.2,8.1
				c-0.4,1.9-0.8,3.8-0.9,5.8c-0.1,0.8-0.3,1-0.8,1.1c-0.5,0.1-1.1-0.3-1.5-0.8c-0.6-1.1-0.9-2.3-1.4-3.4c-0.3-0.6-0.5-1.4-0.8-2.1
				c-0.3,0.8-0.4,1.4-0.5,2.1c-0.3,1.4-0.5,2.8-0.6,4.3c-0.1,0.6-0.3,0.8-0.9,0.6c-0.9-0.3-1.1-0.6-1-1.5c0.4-3,1.1-6.1,1.9-9
				c0.1-0.4,0.4-0.5,0.6-0.4c0.8,0.1,1.5,0.6,1.6,1.5c0.4,1.6,0.9,3.3,1.5,4.8c0,0.1,0,0.4,0.3,0.3c0.1-0.1,0.3-0.4,0.4-0.5
				c0.3-0.6,0.4-1.4,0.5-2c0.5-2.3,1.1-4.5,2.3-6.7C35.6,6.1,36.1,5.6,36.5,5z"/>
			<path class="st4" d="M23.4,18.1c-0.3,0.4-0.5,0.6-0.6,0.9c-1.3,1.5-3.4,1.3-4.2-0.6c-0.4-0.9-0.4-1.9-0.3-2.8
				c0.1-2,0.8-3.9,1.3-5.8c0.1-0.4,0.4-0.5,0.8-0.5c0.3,0,0.5,0.1,0.8,0.4c0.5,0.4,0.6,0.6,0.4,1.3c-0.6,1.5-1,3.2-1.1,4.8
				c-0.1,0.8-0.1,1.6,0.1,2.4c0.1,0.5,0.3,0.5,0.5,0.1c0.9-0.9,1.5-1.9,2-3c0.8-1.6,1.4-3.3,1.6-5c0.1-0.5,0.4-0.6,0.9-0.5
				c0.1,0,0.4,0.1,0.5,0.3c0.6,0.4,0.6,0.5,0.5,1.3c-0.6,2.3-1.1,4.5-1.4,6.9c0,0.5-0.1,0.9-0.1,1.4c0,0.4-0.3,0.5-0.6,0.5
				c-0.6-0.1-1.1-0.8-1.1-1.4C23.4,18.3,23.4,18.2,23.4,18.1z"/>
			<path class="st5" d="M32.7,15.7c-0.3,0-0.3,0.4-0.5,0.4c0.3-1.9,0.6-3.7,1.3-5.5c0.5-1.4,1-2.8,1.9-4C35.7,6,36.1,5.3,36.6,5
				c0,0.1,0,0.3-0.1,0.4c-0.4,0.5-0.6,0.9-1,1.4c-1.3,2.3-2,4.8-2.4,7.3C32.9,14.5,32.7,15,32.7,15.7z"/>
			<path class="st6" d="M12,7.9c1.1-1,2-2.1,2.6-3.5C14.7,5.2,13,7.6,12,7.9z"/>
			<path class="st7" d="M39,3.3c0.4,0.9,0.9,1.8,1.4,2.5C39.7,5.1,39.1,4.3,39,3.3z"/>
			<path class="st8" d="M15.9,4.6c0.8,0.4,1.5,0.6,2.4,0.9C17.7,5.6,16.3,5,15.9,4.6z"/>
			<path class="st9" d="M19.7,5.8C20.5,6,21.2,6.1,22,6.2C21.2,6.2,20.3,6.1,19.7,5.8C19.6,5.8,19.7,5.8,19.7,5.8z"/>
			<path class="st10" d="M14.9,3.4c0.1,0.4,0.3,0.6,0.3,1H15C14.9,4.1,14.8,3.8,14.9,3.4z"/>
			<path class="st11" d="M38.7,2.2c0.1,0.4,0,0.6-0.3,0.9C38.6,2.8,38.6,2.6,38.7,2.2z"/>
			<path class="st12" d="M18.8,6.1c-0.1-0.3-0.3-0.6-0.1-1C18.9,5.5,18.8,5.8,18.8,6.1z"/>
			<path class="st13" d="M22.6,6.7c-0.1-0.3-0.1-0.5-0.1-0.9C22.7,6.1,22.6,6.5,22.6,6.7z"/>
			<path class="st14" d="M27.6,6c0.1,0.4,0,0.6,0,0.8C27.4,6.6,27.4,6.5,27.6,6z"/>
			<path class="st15" d="M35.2,4.3c0.1,0.3,0.1,0.5,0,0.8C35.1,4.8,35.1,4.6,35.2,4.3z"/>
			<path class="st16" d="M31.5,5.5c0.3,0.3,0.1,0.5,0,0.8h-0.1C31.5,6,31.5,5.7,31.5,5.5z"/>
			<path class="st17" d="M35.7,15.8c-0.3-1.9,1.1-4.9,2.3-6.2c-0.6,1-1.1,1.9-1.5,3C36.1,13.5,35.8,14.7,35.7,15.8z"/>
			<path class="st18" d="M41.1,18.1c-0.1,0.5-0.3,1.1-0.4,1.6C40.9,19.2,40.9,18.7,41.1,18.1L41.1,18.1z"/>
			<path class="st19" d="M35.7,16.2c0.1,0.3,0.1,0.4,0.1,0.6C35.7,16.7,35.7,16.4,35.7,16.2z"/>
			<path class="st20" d="M4.2,18.2c0.9-0.3,1.8-0.5,2.6-0.9C6,17.8,5.1,18.2,4.2,18.2z"/>
			<path class="st21" d="M4.1,8.6c-0.8,0.6-1.5,1.1-2.1,1.9C2.5,9.6,3.3,9.1,4.1,8.6z"/>
			<path class="st22" d="M7.1,7.5C6.5,7.7,5.8,7.9,5.2,8.2C5.6,7.9,6.5,7.5,7.1,7.5z"/>
			<path class="st23" d="M17.3,15.9c0.3,0,0.5,0,0.5-0.4s-0.4-0.9-0.6-1s-0.3-0.3-0.3-0.4c0-1.5,0-3,0.1-4.7
				c0.3-0.8-0.3-1.1-0.9-1.4C16,8,15.8,8,15.7,7.9C15.4,7.7,15,7.7,14.8,8c0,0-0.1,0.1-0.1,0c-0.5-0.1-0.6,0.1-0.8,0.5
				c-1.1,2-2.1,4.2-2.9,6.3c-0.3,0.5-0.5,0.8-1,0.8H9.9c-0.4,0-0.4,0.1-0.4,0.4c0,0.3,0.3,0.5,0.4,0.8c0.1,0.1,0.1,0.3,0.1,0.5
				c-0.1,0.5-0.4,1-0.5,1.4c-0.1,0.6,0.1,1.1,0.8,1.5c0.5,0.3,0.8,0.1,0.9-0.4c0.3-0.9,0.6-1.8,0.9-2.6c0.1-0.3,0.1-0.3,0.4-0.4
				c0.8-0.1,1.5-0.3,2.4-0.4c0.3,0,0.4,0,0.4,0.3c0,0.1,0,0.3,0,0.4c0.1,0.8,0.1,1.6,0.4,2.4c0.1,0.6,0.8,1,1.4,1
				c0.5,0,0.6-0.3,0.6-0.8c-0.3-1.1-0.4-2.1-0.5-3.3C16.9,15.9,17,15.8,17.3,15.9z M14.9,14.4c-0.1,0.3-0.5,0.1-0.9,0.1
				c-0.3,0-0.6,0.1-0.9,0.1c-0.3,0-0.3,0-0.1-0.3c0.5-1.4,1.1-2.6,1.9-4c0,0,0,0,0.1-0.1c0,1.1-0.1,2.1-0.1,3.2
				C14.9,13.9,15,14.3,14.9,14.4z"/>
			<path class="st24" d="M13.9,8.9c-1,2-2,4.2-2.9,6.3C11.8,13,12.8,10.9,13.9,8.9z"/>
			<path class="st25" d="M15.3,11c0,1.3,0,2.3,0,3.4C15.2,14.2,15.2,11.9,15.3,11z"/>
			<path class="st26" d="M15.4,16.2c0.1,0.8,0.1,1.5,0.3,2.3C15.5,17.7,15.4,16.9,15.4,16.2L15.4,16.2z"/>
			<path class="st27" d="M9.7,18.4c0.1-0.5,0.3-1,0.5-1.5C10.2,17.6,10,17.9,9.7,18.4z"/>
			<path class="st28" d="M32.7,15.7c0-0.8,0.3-1.5,0.4-2.3c0.4-2.1,1-4.2,2-6.1c0.1-0.1,0.1-0.4,0.4-0.5c0,0.1,0,0.3-0.1,0.3
				c-1.3,2.3-1.9,4.8-2.4,7.4C32.9,14.8,32.8,15.2,32.7,15.7z"/>
			<path class="st29" d="M28.3,11.6c-0.5,2.3-0.9,4.4-1.4,6.7C27.1,16.1,27.5,13.8,28.3,11.6C28.3,11.5,28.3,11.5,28.3,11.6z"/>
			<path class="st30" d="M28.3,11.6C28.1,11.6,28.1,11.6,28.3,11.6c0-0.3,0-0.5,0.1-0.8C28.4,11.3,28.4,11.4,28.3,11.6z"/>
			<path class="st31" d="M19.3,11.8c-0.4,1.5-0.6,3.2-0.6,4.9C18.4,15.8,18.9,13,19.3,11.8z"/>
			<path class="st32" d="M23,16.1c-0.1,0.5-0.6,1.4-1.1,1.8C22.3,17.2,22.7,16.7,23,16.1z"/>
			<path class="st33" d="M18.7,16.9c0.1,0.3,0.1,0.4,0.1,0.5C18.6,17.3,18.6,17.2,18.7,16.9z"/>
		</g>
		<path class="st34" d="M31,25.3l-2-1.1c-0.2-0.1-0.4,0-0.4,0.2v2.3c0,0.2,0.2,0.4,0.4,0.2l2-1.1C31.2,25.6,31.2,25.4,31,25.3z"/>
	</g>
	<g>
		<g>
			<path class="st0" d="M55.4,16.5c-1.1,0-1.9-0.2-2.6-0.5c-0.7-0.3-1.2-0.7-1.5-1.2c-0.4-0.5-0.6-1-0.6-1.5c0-0.1,0-0.2,0.1-0.2
				C50.8,13,50.9,13,51,13H53c0.2,0,0.3,0,0.3,0.1c0.1,0.1,0.2,0.1,0.2,0.2c0.1,0.2,0.2,0.3,0.4,0.5c0.2,0.2,0.4,0.3,0.6,0.4
				c0.3,0.1,0.6,0.1,0.9,0.1c0.6,0,1.1-0.1,1.3-0.3c0.3-0.2,0.5-0.5,0.5-0.8c0-0.2-0.1-0.4-0.3-0.6c-0.2-0.2-0.5-0.3-0.8-0.4
				c-0.4-0.1-0.9-0.3-1.4-0.4c-0.8-0.2-1.4-0.4-2-0.7c-0.6-0.3-1-0.6-1.2-1.1c-0.3-0.4-0.5-1-0.5-1.6c0-0.7,0.2-1.2,0.6-1.7
				c0.4-0.5,0.9-0.9,1.5-1.2c0.7-0.3,1.4-0.4,2.3-0.4c0.7,0,1.3,0.1,1.9,0.3c0.6,0.2,1,0.5,1.3,0.8c0.4,0.3,0.7,0.7,0.9,1
				c0.2,0.4,0.3,0.7,0.3,1.1c0,0.1,0,0.2-0.1,0.2c-0.1,0.1-0.1,0.1-0.3,0.1h-2c-0.1,0-0.2,0-0.3-0.1c-0.1,0-0.2-0.1-0.2-0.2
				c-0.1-0.2-0.2-0.4-0.5-0.6c-0.3-0.2-0.6-0.3-1.1-0.3s-0.8,0.1-1.1,0.3C54,8,53.8,8.2,53.8,8.5c0,0.2,0.1,0.4,0.2,0.6
				c0.1,0.2,0.4,0.3,0.7,0.4C55,9.6,55.5,9.7,56,9.9c1,0.2,1.7,0.4,2.3,0.7s1.1,0.6,1.2,1.1c0.3,0.4,0.4,1,0.4,1.5
				c0,0.7-0.2,1.3-0.6,1.8c-0.4,0.5-1,0.9-1.6,1.2C57.1,16.4,56.3,16.5,55.4,16.5z"/>
			<path class="st0" d="M63.9,16.5c-0.6,0-1.1-0.1-1.5-0.3s-0.8-0.5-1.1-0.9c-0.3-0.4-0.4-0.8-0.4-1.2c0-0.8,0.3-1.3,0.9-1.7
				c0.6-0.4,1.4-0.8,2.4-0.9l1.9-0.3V11c0-0.4-0.1-0.7-0.2-0.9c-0.2-0.2-0.5-0.3-0.9-0.3c-0.3,0-0.5,0.1-0.7,0.2
				c-0.2,0.1-0.3,0.3-0.4,0.5c-0.1,0.1-0.2,0.2-0.4,0.2h-1.7c-0.1,0-0.2,0-0.3-0.1c-0.1-0.1-0.1-0.2-0.1-0.3c0-0.2,0.1-0.4,0.2-0.7
				c0.1-0.3,0.4-0.5,0.7-0.8c0.3-0.2,0.7-0.5,1.2-0.6c0.5-0.2,1.1-0.2,1.6-0.2c0.7,0,1.2,0.1,1.7,0.2C67.4,8.5,67.8,8.7,68,9
				c0.3,0.3,0.5,0.6,0.7,1c0.1,0.4,0.2,0.8,0.2,1.2v4.7c0,0.1,0,0.2-0.1,0.3c-0.1,0.1-0.2,0.1-0.3,0.1h-1.8c-0.1,0-0.2,0-0.3-0.1
				c-0.1-0.1-0.1-0.2-0.1-0.3v-0.6c-0.1,0.2-0.3,0.4-0.6,0.6c-0.2,0.2-0.5,0.3-0.8,0.4C64.7,16.5,64.3,16.5,63.9,16.5z M64.7,14.8
				c0.3,0,0.6-0.1,0.9-0.2c0.3-0.1,0.5-0.3,0.6-0.6c0.1-0.3,0.2-0.6,0.2-1.1v-0.2L65,13c-0.5,0.1-0.9,0.2-1.1,0.4
				c-0.2,0.2-0.3,0.4-0.3,0.6c0,0.2,0.1,0.3,0.2,0.5c0.1,0.1,0.3,0.2,0.4,0.3C64.3,14.8,64.5,14.8,64.7,14.8z"/>
			<path class="st0" d="M73.7,16.5c-0.6,0-1.2-0.1-1.5-0.4c-0.4-0.3-0.9-0.7-1.1-1.2c-0.3-0.5-0.4-1.2-0.4-1.9V8.6
				c0-0.1,0-0.2,0.1-0.3c0.1-0.1,0.2-0.1,0.3-0.1H73c0.1,0,0.2,0,0.3,0.1c0.1,0.1,0.1,0.2,0.1,0.3v4.2c0,1.1,0.5,1.5,1.3,1.5
				c0.4,0,0.8-0.1,1.1-0.4c0.3-0.3,0.4-0.7,0.4-1.2V8.6c0-0.1,0-0.2,0.1-0.3c0.1-0.1,0.2-0.1,0.3-0.1h1.9c0.1,0,0.2,0,0.3,0.1
				c0.1,0.1,0.1,0.2,0.1,0.3v7.3c0,0.1,0,0.2-0.1,0.3c-0.1,0.1-0.2,0.1-0.3,0.1h-1.8c-0.1,0-0.2,0-0.3-0.1c-0.1-0.1-0.1-0.2-0.1-0.3
				v-0.6c-0.3,0.4-0.6,0.7-1.1,0.9C74.8,16.4,74.3,16.5,73.7,16.5z"/>
			<path class="st0" d="M81.1,16.4c-0.1,0-0.2,0-0.3-0.1c-0.1-0.1-0.1-0.2-0.1-0.3V8.6c0-0.1,0-0.2,0.1-0.3c0.1-0.1,0.2-0.1,0.3-0.1
				h1.7c0.1,0,0.2,0,0.3,0.1c0.1,0.1,0.1,0.2,0.1,0.3v0.6c0.3-0.3,0.6-0.6,1.1-0.8s1-0.3,1.5-0.3s1.2,0.1,1.6,0.4
				c0.5,0.3,0.9,0.7,1.1,1.2c0.3,0.5,0.4,1.2,0.4,1.9v4.3c0,0.1,0,0.2-0.1,0.3c-0.1,0.1-0.2,0.1-0.3,0.1h-1.9c-0.1,0-0.2,0-0.3-0.1
				c-0.1-0.1-0.1-0.2-0.1-0.3v-4.2c0-0.5-0.1-0.9-0.4-1.2c-0.2-0.3-0.6-0.4-1.1-0.4c-0.4,0-0.8,0.1-1.1,0.4
				c-0.3,0.3-0.4,0.7-0.4,1.2v4.2c0,0.1,0,0.2-0.1,0.3c-0.1,0.1-0.2,0.1-0.3,0.1L81.1,16.4L81.1,16.4z"/>
			<path class="st0" d="M94.7,19.9c-0.8,0-1.4-0.1-2-0.3c-0.5-0.2-1-0.5-1.2-0.8c-0.3-0.3-0.5-0.6-0.7-0.9c-0.1-0.3-0.2-0.5-0.2-0.7
				c0-0.1,0-0.2,0.1-0.3c0.1-0.1,0.2-0.1,0.3-0.1h2c0.1,0,0.2,0,0.3,0.1c0.1,0.1,0.1,0.1,0.2,0.3c0.1,0.1,0.1,0.2,0.2,0.4
				c0.1,0.1,0.2,0.2,0.4,0.3c0.2,0.1,0.4,0.1,0.7,0.1c0.3,0,0.6-0.1,0.8-0.2c0.2-0.1,0.4-0.3,0.5-0.5c0.1-0.2,0.2-0.5,0.2-0.9v-1.1
				c-0.2,0.3-0.6,0.5-1,0.7c-0.4,0.2-0.9,0.3-1.3,0.3s-1-0.1-1.4-0.2c-0.5-0.1-0.8-0.4-1.1-0.7c-0.3-0.3-0.5-0.7-0.7-1.2
				c-0.2-0.5-0.3-1-0.3-1.5c0-0.3,0-0.6,0-0.9c0-0.6,0.1-1.1,0.3-1.5c0.2-0.5,0.4-0.9,0.7-1.2c0.3-0.3,0.6-0.6,1.1-0.8
				c0.4-0.2,0.9-0.3,1.4-0.3c0.6,0,1.1,0.1,1.4,0.3c0.4,0.2,0.8,0.5,1,0.8V8.6c0-0.1,0-0.2,0.1-0.3c0.1-0.1,0.2-0.1,0.3-0.1h1.8
				c0.1,0,0.2,0,0.3,0.1c0.1,0.1,0.1,0.2,0.1,0.3v7.5c0,0.8-0.2,1.4-0.5,2s-0.8,1-1.3,1.2C96.3,19.7,95.5,19.9,94.7,19.9z
				 M94.6,14.2c0.3,0,0.6-0.1,0.8-0.2c0.2-0.2,0.4-0.3,0.5-0.6c0.1-0.2,0.2-0.5,0.2-0.8c0-0.1,0-0.3,0-0.5c0-0.2,0-0.4,0-0.5
				c0-0.3-0.1-0.5-0.2-0.8c-0.1-0.2-0.3-0.4-0.5-0.6c-0.2-0.1-0.5-0.2-0.8-0.2c-0.4,0-0.6,0.1-0.9,0.2c-0.2,0.2-0.4,0.4-0.5,0.6
				c-0.1,0.3-0.1,0.5-0.2,0.9c0,0.2,0,0.5,0,0.7c0,0.3,0.1,0.6,0.2,0.9c0.1,0.3,0.2,0.5,0.5,0.6C94,14,94.3,14.2,94.6,14.2z"/>
			<path class="st0" d="M104.6,16.5c-0.9,0-1.6-0.1-2.3-0.4c-0.7-0.3-1.1-0.7-1.4-1.1s-0.5-0.9-0.5-1.4c0-0.1,0-0.2,0.1-0.2
				c0.1,0,0.2-0.1,0.3-0.1h0.8c0.1,0,0.2,0,0.3,0.1c0.1,0.1,0.1,0.1,0.1,0.2c0.1,0.3,0.2,0.5,0.4,0.8c0.2,0.3,0.5,0.5,0.9,0.6
				c0.4,0.2,0.9,0.3,1.4,0.3c0.9,0,1.5-0.2,2-0.5s0.7-0.8,0.7-1.2c0-0.4-0.1-0.7-0.3-0.9c-0.2-0.2-0.6-0.4-1.1-0.6
				c-0.5-0.2-1.1-0.4-1.8-0.6c-0.8-0.2-1.3-0.5-1.9-0.7c-0.5-0.3-0.9-0.6-1.2-1c-0.3-0.4-0.4-0.9-0.4-1.4s0.2-1.1,0.5-1.5
				c0.3-0.5,0.8-0.8,1.3-1.1c0.6-0.3,1.2-0.4,2-0.4c0.7,0,1.2,0.1,1.7,0.3s0.9,0.4,1.2,0.7c0.3,0.3,0.6,0.6,0.8,1
				c0.2,0.3,0.3,0.7,0.3,1c0,0.1,0,0.1-0.1,0.2c-0.1,0.1-0.1,0.1-0.3,0.1h-0.9c-0.1,0-0.2,0-0.2-0.1c-0.1,0-0.1-0.1-0.2-0.2
				c-0.1-0.4-0.3-0.8-0.7-1.1c-0.4-0.3-1-0.5-1.6-0.5s-1.2,0.1-1.6,0.4c-0.4,0.3-0.7,0.7-0.7,1.2c0,0.4,0.1,0.7,0.3,0.9
				c0.2,0.2,0.5,0.5,1,0.6c0.4,0.2,1,0.4,1.6,0.6c0.9,0.2,1.5,0.5,2,0.8c0.5,0.3,1,0.6,1.2,1c0.3,0.4,0.4,0.9,0.4,1.4
				c0,0.7-0.2,1.2-0.5,1.6c-0.3,0.4-0.9,0.9-1.4,1.1C106.1,16.4,105.4,16.5,104.6,16.5z"/>
			<path class="st0" d="M113.7,16.4c-0.6,0-1.1-0.1-1.4-0.3c-0.4-0.2-0.7-0.6-0.8-1c-0.2-0.4-0.3-0.9-0.3-1.4V9.5H110
				c-0.1,0-0.2,0-0.3-0.1c-0.1-0.1-0.1-0.2-0.1-0.3V8.6c0-0.1,0-0.2,0.1-0.3c0.1-0.1,0.2-0.1,0.3-0.1h1.2V5.6c0-0.1,0-0.2,0.1-0.3
				c0.1-0.1,0.2-0.1,0.3-0.1h0.8c0.1,0,0.2,0,0.3,0.1c0.1,0.1,0.1,0.2,0.1,0.3v2.6h1.9c0.1,0,0.2,0,0.3,0.1c0.1,0.1,0.1,0.2,0.1,0.3
				v0.6c0,0.1,0,0.2-0.1,0.3c-0.1,0.1-0.2,0.1-0.3,0.1h-1.9v4c0,0.5,0.1,0.9,0.3,1.2c0.2,0.3,0.5,0.4,0.9,0.4h1c0.1,0,0.2,0,0.3,0.1
				c0.1,0.1,0.1,0.2,0.1,0.3v0.6c0,0.1,0,0.2-0.1,0.3s-0.2,0.1-0.3,0.1L113.7,16.4L113.7,16.4z"/>
			<path class="st0" d="M117,16.4c-0.1,0-0.2,0-0.3-0.1c-0.1-0.1-0.1-0.2-0.1-0.3V8.6c0-0.1,0-0.2,0.1-0.3c0.1-0.1,0.2-0.1,0.3-0.1
				h0.7c0.1,0,0.2,0,0.3,0.1c0.1,0.1,0.1,0.2,0.1,0.3v0.7c0.2-0.4,0.5-0.6,0.9-0.8c0.4-0.2,0.8-0.3,1.3-0.3h0.6c0.1,0,0.2,0,0.3,0.1
				c0.1,0.1,0.1,0.2,0.1,0.3v0.7c0,0.1,0,0.2-0.1,0.3c-0.1,0.1-0.2,0.1-0.3,0.1h-1c-0.6,0-1,0.2-1.3,0.5c-0.3,0.3-0.5,0.8-0.5,1.3
				v4.6c0,0.1,0,0.2-0.1,0.3c-0.1,0.1-0.2,0.1-0.3,0.1L117,16.4L117,16.4z"/>
			<path class="st0" d="M125.6,16.5c-1.1,0-1.9-0.3-2.6-1c-0.7-0.7-1-1.5-1.1-2.7c0-0.1,0-0.3,0-0.5s0-0.4,0-0.5
				c0-0.8,0.2-1.3,0.5-1.9c0.3-0.6,0.7-1,1.2-1.2c0.5-0.3,1.2-0.5,1.8-0.5c0.8,0,1.4,0.2,2,0.5c0.6,0.3,1,0.8,1.2,1.4
				c0.3,0.6,0.4,1.3,0.4,2.1v0.3c0,0.1,0,0.2-0.1,0.3c-0.1,0.1-0.2,0.1-0.3,0.1h-5.4c0,0,0,0,0,0.1c0,0.1,0,0.1,0,0.1
				c0,0.4,0.1,0.9,0.3,1.2c0.2,0.4,0.4,0.7,0.8,0.9c0.3,0.2,0.7,0.4,1.2,0.4c0.4,0,0.7-0.1,1-0.2c0.3-0.1,0.5-0.3,0.6-0.4
				c0.2-0.1,0.3-0.3,0.3-0.3c0.1-0.1,0.2-0.2,0.2-0.2c0.1,0,0.1,0,0.3,0h0.8c0.1,0,0.2,0,0.3,0.1c0.1,0.1,0.1,0.1,0.1,0.3
				c0,0.2-0.1,0.4-0.3,0.6c-0.2,0.2-0.4,0.5-0.7,0.7c-0.3,0.2-0.7,0.4-1.1,0.6C126.7,16.5,126.2,16.5,125.6,16.5z M123.5,11.7h4.2
				l0,0c0-0.5-0.1-0.9-0.3-1.2c-0.2-0.4-0.4-0.7-0.8-0.9c-0.4-0.2-0.7-0.3-1.2-0.3s-0.9,0.1-1.2,0.3c-0.3,0.2-0.6,0.5-0.8,0.9
				C123.6,10.8,123.5,11.2,123.5,11.7L123.5,11.7z"/>
			<path class="st0" d="M133.4,16.5c-0.5,0-1-0.1-1.4-0.3c-0.4-0.2-0.8-0.5-1.1-0.9c-0.3-0.4-0.4-0.8-0.4-1.2c0-0.7,0.3-1.2,0.9-1.7
				c0.6-0.4,1.3-0.7,2.3-0.9l2.3-0.3v-0.5c0-0.5-0.1-0.9-0.4-1.2c-0.3-0.3-0.8-0.4-1.4-0.4c-0.5,0-0.9,0.1-1.2,0.3s-0.5,0.4-0.6,0.7
				c-0.1,0.2-0.2,0.2-0.3,0.2h-0.7c-0.1,0-0.2,0-0.3-0.1s-0.1-0.2-0.1-0.3c0-0.2,0.1-0.4,0.2-0.6c0.1-0.2,0.3-0.5,0.6-0.7
				c0.3-0.2,0.6-0.4,1-0.6c0.4-0.2,0.9-0.2,1.4-0.2c0.6,0,1.2,0.1,1.5,0.3c0.4,0.2,0.8,0.4,1,0.7c0.3,0.3,0.4,0.6,0.6,1
				c0.1,0.4,0.2,0.7,0.2,1.1v5.1c0,0.1,0,0.2-0.1,0.3c-0.1,0.1-0.2,0.1-0.3,0.1h-0.7c-0.1,0-0.2,0-0.3-0.1s-0.1-0.2-0.1-0.3v-0.7
				c-0.1,0.2-0.3,0.4-0.6,0.6c-0.2,0.2-0.5,0.3-0.9,0.5C134.4,16.5,133.9,16.5,133.4,16.5z M133.8,15.4c0.4,0,0.8-0.1,1.2-0.3
				c0.4-0.2,0.7-0.5,0.9-0.9c0.2-0.4,0.3-0.9,0.3-1.4v-0.5l-1.8,0.3c-0.8,0.1-1.2,0.3-1.6,0.5c-0.4,0.2-0.6,0.6-0.6,1
				c0,0.3,0.1,0.6,0.3,0.8s0.4,0.3,0.7,0.4C133.2,15.4,133.5,15.4,133.8,15.4z"/>
			<path class="st0" d="M140.2,16.4c-0.1,0-0.2,0-0.3-0.1s-0.1-0.2-0.1-0.3V8.6c0-0.1,0-0.2,0.1-0.3c0.1-0.1,0.2-0.1,0.3-0.1h0.7
				c0.1,0,0.2,0,0.3,0.1c0.1,0.1,0.1,0.2,0.1,0.3v0.6c0.2-0.3,0.6-0.6,0.9-0.8c0.3-0.2,0.8-0.3,1.3-0.3c1.2,0,2,0.5,2.5,1.4
				c0.2-0.5,0.6-0.8,1.1-1.1c0.5-0.3,1-0.4,1.5-0.4s1.1,0.1,1.4,0.4c0.5,0.3,0.8,0.7,1.1,1.2c0.3,0.5,0.4,1.2,0.4,1.9v4.5
				c0,0.1,0,0.2-0.1,0.3s-0.2,0.1-0.3,0.1h-0.8c-0.1,0-0.2,0-0.3-0.1c-0.1-0.1-0.1-0.2-0.1-0.3v-4.3c0-0.6-0.1-1.1-0.3-1.3
				c-0.2-0.3-0.4-0.6-0.7-0.7c-0.3-0.1-0.6-0.2-1-0.2c-0.3,0-0.6,0.1-0.9,0.2c-0.3,0.1-0.5,0.4-0.7,0.7c-0.2,0.3-0.3,0.8-0.3,1.3
				v4.3c0,0.1,0,0.2-0.1,0.3c-0.1,0.1-0.2,0.1-0.3,0.1H145c-0.1,0-0.2,0-0.3-0.1s-0.1-0.2-0.1-0.3v-4.3c0-0.6-0.1-1.1-0.3-1.3
				c-0.2-0.3-0.4-0.6-0.7-0.7s-0.6-0.2-0.9-0.2c-0.3,0-0.6,0.1-0.9,0.2c-0.3,0.1-0.5,0.4-0.7,0.7c-0.2,0.3-0.3,0.8-0.3,1.3v4.4
				c0,0.1,0,0.2-0.1,0.3c-0.1,0.1-0.2,0.1-0.3,0.1h-0.4V16.4z"/>
		</g>
		<g>
			<path class="st35" d="M105.2,25.9c-0.3,0-0.6-0.1-0.8-0.2c-0.2-0.1-0.4-0.3-0.5-0.4v0.3c0,0.1,0,0.1-0.1,0.1c0,0-0.1,0.1-0.1,0.1
				h-0.4c-0.1,0-0.1,0-0.1-0.1c0,0-0.1-0.1-0.1-0.1v-5.2c0-0.1,0-0.1,0.1-0.1c0,0,0.1-0.1,0.1-0.1h0.4c0.1,0,0.1,0,0.1,0.1
				c0,0,0,0.1,0,0.1v1.8c0.1-0.2,0.3-0.3,0.5-0.4c0.2-0.1,0.5-0.2,0.8-0.2c0.3,0,0.5,0.1,0.7,0.2c0.2,0.1,0.4,0.2,0.5,0.4
				s0.2,0.4,0.3,0.6c0.1,0.2,0.1,0.5,0.1,0.7c0,0.1,0,0.2,0,0.2c0,0.1,0,0.2,0,0.2c0,0.2,0,0.5-0.1,0.7c-0.1,0.2-0.2,0.4-0.3,0.6
				s-0.3,0.3-0.5,0.4C105.7,25.8,105.5,25.9,105.2,25.9z M105,25.2c0.3,0,0.5-0.1,0.6-0.2c0.2-0.1,0.3-0.3,0.3-0.5s0.1-0.4,0.1-0.6
				c0-0.2,0-0.3,0-0.5c0-0.2,0-0.4-0.1-0.6c-0.1-0.2-0.2-0.3-0.3-0.5c-0.2-0.1-0.4-0.2-0.6-0.2c-0.2,0-0.4,0.1-0.6,0.2
				c-0.2,0.1-0.3,0.3-0.4,0.4c-0.1,0.2-0.1,0.4-0.1,0.5c0,0.1,0,0.2,0,0.3c0,0.1,0,0.2,0,0.3c0,0.2,0.1,0.4,0.1,0.6
				c0.1,0.2,0.2,0.3,0.4,0.5C104.6,25.2,104.8,25.2,105,25.2z"/>
			<path class="st35" d="M108.4,27.3c0,0-0.1,0-0.1,0c0,0,0-0.1,0-0.1c0,0,0,0,0-0.1c0,0,0,0,0-0.1l0.6-1.4l-1.5-3.5
				c0-0.1,0-0.1,0-0.1c0,0,0-0.1,0-0.1c0,0,0.1,0,0.1,0h0.4c0.1,0,0.1,0,0.1,0c0,0,0,0.1,0.1,0.1l1.2,2.8l1.2-2.8c0,0,0-0.1,0.1-0.1
				c0,0,0.1,0,0.1,0h0.4c0,0,0.1,0,0.1,0c0,0,0,0.1,0,0.1c0,0,0,0.1,0,0.1l-2.2,5.1c0,0,0,0.1-0.1,0.1c0,0-0.1,0-0.1,0H108.4z"/>
			<path class="st35" d="M113.8,25.8c-0.1,0-0.1,0-0.1-0.1c0,0-0.1-0.1-0.1-0.1v-5.1c0-0.1,0-0.1,0.1-0.1c0,0,0.1-0.1,0.1-0.1h2.4
				c0.4,0,0.8,0.1,1.1,0.2c0.3,0.1,0.5,0.3,0.6,0.5c0.1,0.2,0.2,0.5,0.2,0.8c0,0.2,0,0.4-0.1,0.5c-0.1,0.1-0.2,0.3-0.3,0.4
				c-0.1,0.1-0.2,0.2-0.3,0.2c0.2,0.1,0.4,0.2,0.5,0.5c0.2,0.2,0.2,0.5,0.2,0.7c0,0.3-0.1,0.6-0.2,0.9c-0.2,0.2-0.4,0.4-0.7,0.6
				c-0.3,0.1-0.7,0.2-1.1,0.2H113.8z M115,22.5h1c0.2,0,0.4-0.1,0.5-0.2c0.1-0.1,0.2-0.3,0.2-0.4c0-0.2-0.1-0.3-0.2-0.4
				c-0.1-0.1-0.3-0.2-0.5-0.2h-1V22.5z M115,24.8h1.1c0.2,0,0.4-0.1,0.5-0.2c0.1-0.1,0.2-0.3,0.2-0.4c0-0.2-0.1-0.3-0.2-0.5
				c-0.1-0.1-0.3-0.2-0.5-0.2H115V24.8z"/>
			<path class="st35" d="M120.2,25.9c-0.3,0-0.5-0.1-0.8-0.2s-0.4-0.3-0.5-0.4c-0.1-0.2-0.2-0.4-0.2-0.6c0-0.4,0.2-0.7,0.5-0.9
				c0.3-0.2,0.7-0.4,1.2-0.4l1-0.1v-0.1c0-0.2,0-0.3-0.1-0.4c-0.1-0.1-0.2-0.1-0.4-0.1c-0.1,0-0.3,0-0.4,0.1
				c-0.1,0.1-0.2,0.1-0.2,0.2c0,0.1-0.1,0.1-0.2,0.1h-0.9c-0.1,0-0.1,0-0.1-0.1c0,0,0-0.1,0-0.1c0-0.1,0-0.2,0.1-0.3
				s0.2-0.2,0.3-0.4c0.1-0.1,0.3-0.2,0.6-0.3c0.2-0.1,0.5-0.1,0.8-0.1c0.3,0,0.6,0,0.9,0.1c0.2,0.1,0.4,0.2,0.6,0.3
				c0.2,0.1,0.3,0.3,0.3,0.5c0.1,0.2,0.1,0.4,0.1,0.6v2.4c0,0.1,0,0.1-0.1,0.1c0,0-0.1,0.1-0.1,0.1h-0.9c-0.1,0-0.1,0-0.1-0.1
				c0,0-0.1-0.1-0.1-0.1v-0.3c-0.1,0.1-0.2,0.2-0.3,0.3c-0.1,0.1-0.2,0.1-0.4,0.2C120.6,25.8,120.4,25.9,120.2,25.9z M120.6,25
				c0.2,0,0.3,0,0.4-0.1c0.1-0.1,0.2-0.2,0.3-0.3c0.1-0.1,0.1-0.3,0.1-0.5v-0.1l-0.7,0.1c-0.2,0-0.4,0.1-0.5,0.2
				c-0.1,0.1-0.2,0.2-0.2,0.3c0,0.1,0,0.2,0.1,0.2c0.1,0.1,0.1,0.1,0.2,0.1C120.4,24.9,120.5,25,120.6,25z"/>
			<path class="st35" d="M123.8,25.8c-0.1,0-0.1,0-0.1-0.1c0,0-0.1-0.1-0.1-0.1v-3.7c0-0.1,0-0.1,0.1-0.1c0,0,0.1-0.1,0.1-0.1h0.9
				c0.1,0,0.1,0,0.1,0.1c0,0,0.1,0.1,0.1,0.1v0.3c0.1-0.2,0.3-0.3,0.5-0.4s0.5-0.2,0.8-0.2c0.3,0,0.6,0.1,0.8,0.2
				c0.2,0.1,0.4,0.3,0.5,0.6c0.1,0.3,0.2,0.6,0.2,1v2.2c0,0.1,0,0.1-0.1,0.1c0,0-0.1,0.1-0.1,0.1h-1c-0.1,0-0.1,0-0.1-0.1
				c0,0-0.1-0.1-0.1-0.1v-2.1c0-0.2-0.1-0.4-0.2-0.6c-0.1-0.1-0.3-0.2-0.5-0.2c-0.2,0-0.4,0.1-0.5,0.2c-0.1,0.1-0.2,0.3-0.2,0.6v2.1
				c0,0.1,0,0.1-0.1,0.1c0,0-0.1,0.1-0.1,0.1H123.8z"/>
			<path class="st35" d="M130.6,27.5c-0.4,0-0.7-0.1-1-0.2c-0.3-0.1-0.5-0.2-0.6-0.4c-0.2-0.1-0.3-0.3-0.3-0.4
				c-0.1-0.1-0.1-0.3-0.1-0.3c0-0.1,0-0.1,0.1-0.1s0.1-0.1,0.1-0.1h1c0.1,0,0.1,0,0.1,0c0,0,0.1,0.1,0.1,0.1c0,0.1,0.1,0.1,0.1,0.2
				c0,0.1,0.1,0.1,0.2,0.2c0.1,0,0.2,0.1,0.3,0.1c0.2,0,0.3,0,0.4-0.1c0.1,0,0.2-0.1,0.2-0.2c0.1-0.1,0.1-0.3,0.1-0.4v-0.5
				c-0.1,0.1-0.3,0.2-0.5,0.3c-0.2,0.1-0.4,0.1-0.7,0.1c-0.3,0-0.5,0-0.7-0.1c-0.2-0.1-0.4-0.2-0.5-0.4c-0.1-0.2-0.2-0.3-0.3-0.6
				c-0.1-0.2-0.1-0.5-0.1-0.8c0-0.1,0-0.3,0-0.4c0-0.3,0.1-0.5,0.1-0.8c0.1-0.2,0.2-0.4,0.3-0.6c0.1-0.2,0.3-0.3,0.5-0.4
				c0.2-0.1,0.4-0.1,0.7-0.1c0.3,0,0.5,0.1,0.7,0.2s0.4,0.2,0.5,0.4v-0.3c0-0.1,0-0.1,0.1-0.1c0,0,0.1-0.1,0.1-0.1h0.9
				c0.1,0,0.1,0,0.1,0.1c0,0,0.1,0.1,0.1,0.1v3.8c0,0.4-0.1,0.7-0.2,1c-0.2,0.3-0.4,0.5-0.7,0.6C131.4,27.4,131.1,27.5,130.6,27.5z
				 M130.6,24.7c0.2,0,0.3,0,0.4-0.1c0.1-0.1,0.2-0.2,0.2-0.3c0-0.1,0.1-0.2,0.1-0.4c0-0.1,0-0.1,0-0.2c0-0.1,0-0.2,0-0.2
				c0-0.1,0-0.3-0.1-0.4c0-0.1-0.1-0.2-0.2-0.3c-0.1-0.1-0.2-0.1-0.4-0.1c-0.2,0-0.3,0-0.4,0.1c-0.1,0.1-0.2,0.2-0.2,0.3
				c0,0.1-0.1,0.3-0.1,0.4c0,0.1,0,0.2,0,0.4c0,0.2,0,0.3,0.1,0.4c0,0.1,0.1,0.2,0.2,0.3C130.3,24.6,130.4,24.7,130.6,24.7z"/>
			<path class="st35" d="M135.5,25.8c-0.1,0-0.1,0-0.1-0.1c0,0-0.1-0.1-0.1-0.1v-5.1c0-0.1,0-0.1,0.1-0.1c0,0,0.1-0.1,0.1-0.1h1
				c0.1,0,0.1,0,0.1,0.1c0,0,0.1,0.1,0.1,0.1v5.1c0,0.1,0,0.1-0.1,0.1c0,0-0.1,0.1-0.1,0.1H135.5z"/>
			<path class="st35" d="M138,27.3c-0.1,0-0.1,0-0.1-0.1c0,0-0.1-0.1-0.1-0.1v-5.2c0-0.1,0-0.1,0.1-0.1c0,0,0.1-0.1,0.1-0.1h0.9
				c0.1,0,0.1,0,0.1,0.1c0,0,0.1,0.1,0.1,0.1v0.3c0.1-0.2,0.3-0.3,0.5-0.4c0.2-0.1,0.4-0.2,0.7-0.2c0.3,0,0.5,0,0.7,0.1
				c0.2,0.1,0.4,0.2,0.5,0.4c0.1,0.2,0.3,0.3,0.3,0.6c0.1,0.2,0.1,0.5,0.1,0.8c0,0.1,0,0.2,0,0.3c0,0.1,0,0.2,0,0.3
				c0,0.3-0.1,0.5-0.1,0.8c-0.1,0.2-0.2,0.4-0.3,0.6c-0.1,0.2-0.3,0.3-0.5,0.4c-0.2,0.1-0.4,0.1-0.7,0.1c-0.3,0-0.5,0-0.7-0.1
				c-0.2-0.1-0.3-0.2-0.5-0.4v1.7c0,0.1,0,0.1-0.1,0.1c0,0-0.1,0.1-0.1,0.1H138z M139.9,24.8c0.2,0,0.3,0,0.4-0.1
				c0.1-0.1,0.2-0.2,0.2-0.3c0-0.1,0.1-0.3,0.1-0.4c0-0.2,0-0.3,0-0.5c0-0.2,0-0.3-0.1-0.4c0-0.1-0.1-0.2-0.2-0.3
				c-0.1-0.1-0.2-0.1-0.4-0.1c-0.2,0-0.3,0-0.4,0.1c-0.1,0.1-0.2,0.2-0.2,0.3c0,0.1-0.1,0.2-0.1,0.4c0,0.1,0,0.2,0,0.3s0,0.2,0,0.3
				c0,0.1,0,0.3,0.1,0.4c0.1,0.1,0.1,0.2,0.2,0.3C139.6,24.8,139.7,24.8,139.9,24.8z"/>
			<path class="st35" d="M144.6,25.9c-0.4,0-0.8-0.1-1.1-0.2c-0.3-0.1-0.5-0.3-0.7-0.6c-0.2-0.3-0.2-0.6-0.3-0.9c0-0.1,0-0.2,0-0.4
				s0-0.2,0-0.3c0-0.4,0.1-0.7,0.3-0.9c0.2-0.3,0.4-0.5,0.7-0.6c0.3-0.1,0.7-0.2,1.1-0.2c0.4,0,0.8,0.1,1.1,0.2
				c0.3,0.1,0.5,0.3,0.7,0.6c0.2,0.3,0.3,0.6,0.3,0.9c0,0.1,0,0.2,0,0.3s0,0.3,0,0.4c0,0.4-0.1,0.7-0.3,0.9
				c-0.2,0.3-0.4,0.5-0.7,0.6C145.5,25.8,145.1,25.9,144.6,25.9z M144.6,24.9c0.2,0,0.4-0.1,0.5-0.2c0.1-0.1,0.2-0.4,0.2-0.6
				c0-0.1,0-0.2,0-0.3c0-0.1,0-0.2,0-0.3c0-0.3-0.1-0.5-0.2-0.6c-0.1-0.1-0.3-0.2-0.5-0.2c-0.2,0-0.4,0.1-0.5,0.2
				c-0.1,0.1-0.2,0.4-0.2,0.6c0,0.1,0,0.2,0,0.3c0,0.1,0,0.2,0,0.3c0,0.3,0.1,0.5,0.2,0.6C144.3,24.8,144.4,24.9,144.6,24.9z"/>
			<path class="st35" d="M148.1,27.3c0,0-0.1,0-0.1,0c0,0,0-0.1,0-0.1c0,0,0,0,0,0c0,0,0,0,0-0.1l0.6-1.5L147,22c0,0,0-0.1,0-0.1
				c0,0,0-0.1,0.1-0.1c0,0,0.1-0.1,0.1-0.1h0.9c0.1,0,0.1,0,0.2,0.1c0,0,0.1,0.1,0.1,0.1l0.9,2.3l0.9-2.3c0,0,0-0.1,0.1-0.1
				c0,0,0.1-0.1,0.2-0.1h0.9c0,0,0.1,0,0.1,0.1c0,0,0.1,0.1,0.1,0.1c0,0,0,0.1,0,0.1l-2.2,5.1c0,0,0,0.1-0.1,0.1
				c0,0-0.1,0.1-0.2,0.1H148.1z"/>
		</g>
	</g>
</g>
</svg>
