<?xml version="1.0" encoding="utf-8"?>
<!-- Generator: Adobe Illustrator 28.0.0, SVG Export Plug-In . SVG Version: 6.00 Build 0)  -->
<svg version="1.1" id="Layer_1" xmlns:xodm="http://www.corel.com/coreldraw/odm/2003"
	 xmlns="http://www.w3.org/2000/svg" xmlns:xlink="http://www.w3.org/1999/xlink" x="0px" y="0px" viewBox="0 0 36.3 21.2"
	 style="enable-background:new 0 0 36.3 21.2;" xml:space="preserve">
<style type="text/css">
	.st0{fill:#FFFFFF;}
	.st1{fill:#945832;}
	.st2{fill:#935833;}
	.st3{fill:#945731;}
	.st4{fill:#935732;}
	.st5{fill:#825639;}
	.st6{fill:#E2D6C9;}
	.st7{fill:#DDD3C6;}
	.st8{fill:#E3D5C2;}
	.st9{fill:#DDCDB8;}
	.st10{fill:#E0D6CC;}
	.st11{fill:#DBD1CA;}
	.st12{fill:#DBC9B7;}
	.st13{fill:#D7C7B8;}
	.st14{fill:#D7C7B5;}
	.st15{fill:#C7B4A1;}
	.st16{fill:#D4C2B0;}
	.st17{fill:#DFD8CC;}
	.st18{fill:#DBCBBE;}
	.st19{fill:#CCB6A0;}
	.st20{fill:#DBC8B3;}
	.st21{fill:#D7CDC2;}
	.st22{fill:#D9C5B0;}
	.st23{fill:#925631;}
	.st24{fill:#DBD0C3;}
	.st25{fill:#D2C4B2;}
	.st26{fill:#CFBFAD;}
	.st27{fill:#D0C1B0;}
	.st28{fill:#DFD8CB;}
	.st29{fill:#EAE3D7;}
	.st30{fill:#C6AD96;}
	.st31{fill:#DFD6C8;}
	.st32{fill:#D2C7B8;}
	.st33{fill:#BEAA99;}
	.st34{fill:#F60403;}
</style>
<g>
	<g>
		<path class="st0" d="M3.2,21.2c-0.6,0-1.2-0.1-1.6-0.3s-0.7-0.4-0.9-0.7c-0.2-0.3-0.2-0.6-0.2-0.9c0-0.1,0-0.1,0.1-0.1
			c0,0,0.1-0.1,0.1-0.1h1.5c0.1,0,0.2,0,0.2,0c0,0,0.1,0.1,0.1,0.1c0,0.1,0.1,0.1,0.2,0.2c0.1,0.1,0.1,0.1,0.3,0.1
			c0.1,0,0.2,0.1,0.4,0.1c0.3,0,0.5,0,0.7-0.1c0.2-0.1,0.3-0.2,0.3-0.3c0-0.1,0-0.2-0.1-0.3c-0.1-0.1-0.2-0.1-0.4-0.2
			c-0.2-0.1-0.4-0.1-0.8-0.2c-0.5-0.1-0.8-0.2-1.1-0.4c-0.3-0.2-0.5-0.4-0.6-0.7c-0.1-0.3-0.1-0.6-0.1-1c0.1-0.6,0.4-1.1,0.9-1.4
			c0.5-0.3,1.2-0.5,2-0.5c0.4,0,0.8,0.1,1.1,0.2c0.3,0.1,0.6,0.3,0.8,0.5s0.4,0.4,0.5,0.6c0.1,0.2,0.1,0.4,0.1,0.6
			c0,0.1,0,0.1-0.1,0.1c0,0-0.1,0.1-0.1,0.1H5c-0.1,0-0.1,0-0.2,0c0,0-0.1-0.1-0.1-0.1c0-0.1-0.1-0.2-0.2-0.2s-0.2-0.1-0.4-0.1
			c-0.2,0-0.4,0-0.5,0.1c-0.1,0.1-0.2,0.2-0.2,0.3c0,0.1,0,0.2,0.1,0.2c0.1,0.1,0.2,0.1,0.3,0.2c0.2,0.1,0.4,0.1,0.7,0.2
			c0.6,0.1,1,0.2,1.3,0.4s0.5,0.4,0.6,0.7c0.1,0.3,0.1,0.6,0,1c-0.1,0.6-0.5,1.1-1,1.5C4.9,21,4.1,21.2,3.2,21.2z"/>
		<path class="st0" d="M9.5,21.1c-0.4,0-0.8-0.1-1.1-0.2c-0.3-0.1-0.5-0.3-0.6-0.6c-0.1-0.3-0.1-0.6,0-1.1L8,17.7H7.3
			c-0.1,0-0.1,0-0.2-0.1s0-0.1,0-0.2l0.2-0.9c0-0.1,0-0.1,0.1-0.2s0.1-0.1,0.2-0.1h0.7l0.3-1.5c0-0.1,0-0.1,0.1-0.2
			c0.1,0,0.1-0.1,0.2-0.1h1.3c0.1,0,0.1,0,0.2,0.1c0,0,0.1,0.1,0,0.2l-0.3,1.5h1.1c0.1,0,0.1,0,0.2,0.1c0,0,0,0.1,0,0.2l-0.2,0.9
			c0,0.1,0,0.1-0.1,0.2s-0.1,0.1-0.2,0.1H9.8l-0.3,1.3c0,0.1,0,0.2,0,0.3c0,0.1,0,0.2,0.1,0.2c0.1,0,0.1,0.1,0.3,0.1h0.8
			c0.1,0,0.1,0,0.2,0.1s0,0.1,0,0.2l-0.2,1c0,0.1,0,0.1-0.1,0.2c-0.1,0-0.1,0.1-0.2,0.1H9.5z"/>
		<path class="st0" d="M11.5,21.1c-0.1,0-0.1,0-0.2-0.1s0-0.1,0-0.2l0.9-4.3c0-0.1,0-0.1,0.1-0.2s0.1-0.1,0.2-0.1h1.3
			c0.1,0,0.1,0,0.2,0.1c0,0,0,0.1,0,0.2l-0.1,0.3c0.2-0.2,0.3-0.3,0.5-0.4s0.5-0.2,0.8-0.2h0.6c0.1,0,0.1,0,0.2,0.1c0,0,0,0.1,0,0.2
			l-0.3,1.2c0,0.1,0,0.1-0.1,0.2c-0.1,0-0.1,0.1-0.2,0.1h-1c-0.2,0-0.4,0.1-0.5,0.2c-0.1,0.1-0.2,0.3-0.3,0.5l-0.5,2.2
			c0,0.1,0,0.1-0.1,0.2c-0.1,0-0.1,0.1-0.2,0.1H11.5z"/>
		<path class="st0" d="M18.1,21.2c-0.5,0-0.9-0.1-1.3-0.3c-0.3-0.2-0.6-0.4-0.7-0.8s-0.1-0.8,0-1.3c0,0,0-0.1,0-0.1c0,0,0-0.1,0-0.1
			c0.1-0.5,0.3-0.9,0.6-1.3c0.3-0.4,0.6-0.6,1-0.8c0.4-0.2,0.9-0.3,1.4-0.3c0.6,0,1,0.1,1.3,0.3c0.3,0.2,0.5,0.5,0.6,0.9
			c0.1,0.4,0.1,0.8,0,1.2l0,0.3c0,0.1,0,0.1-0.1,0.2c-0.1,0-0.1,0.1-0.2,0.1H18c0,0,0,0,0,0.1c0,0.1,0,0.3,0,0.4
			c0,0.1,0.1,0.2,0.1,0.3c0.1,0.1,0.2,0.1,0.3,0.1c0.1,0,0.1,0,0.2,0c0.1,0,0.1-0.1,0.2-0.1c0,0,0.1-0.1,0.1-0.1
			c0.1-0.1,0.1-0.1,0.2-0.1c0,0,0.1,0,0.2,0h1.4c0.1,0,0.1,0,0.1,0.1c0,0,0,0.1,0,0.1c0,0.1-0.1,0.2-0.2,0.4s-0.3,0.3-0.5,0.5
			c-0.2,0.1-0.5,0.3-0.8,0.4S18.5,21.2,18.1,21.2z M18.2,18.2h1.1v0c0-0.2,0-0.3,0-0.4c0-0.1-0.1-0.2-0.1-0.3
			c-0.1-0.1-0.2-0.1-0.3-0.1c-0.1,0-0.2,0-0.3,0.1c-0.1,0.1-0.2,0.1-0.2,0.3C18.3,17.9,18.2,18,18.2,18.2L18.2,18.2z"/>
		<path class="st0" d="M27.1,16.4c0,0-0.1-0.1-0.2-0.1h-1.3c-0.1,0-0.1,0-0.2,0.1c-0.1,0-0.1,0.1-0.1,0.2l0,0.2
			c-0.1-0.1-0.3-0.3-0.5-0.4c-0.2-0.1-0.5-0.1-0.8-0.1c-0.3,0-0.6,0-0.8,0.1c-0.3,0.1-0.5,0.2-0.7,0.4c-0.2,0.2-0.4,0.4-0.5,0.7
			c-0.1,0.3-0.3,0.6-0.3,0.9c0,0.1-0.1,0.2-0.1,0.3s0,0.2-0.1,0.3c-0.1,0.4-0.1,0.7,0,0.9s0.1,0.5,0.3,0.7s0.3,0.3,0.6,0.4
			s0.5,0.1,0.8,0.1c0.3,0,0.6-0.1,0.8-0.2s0.4-0.2,0.6-0.4l-0.1,0.3c0,0.1,0,0.1,0,0.2c0,0,0.1,0.1,0.2,0.1H26c0.1,0,0.1,0,0.2-0.1
			c0.1,0,0.1-0.1,0.1-0.2l0.9-4.3C27.2,16.5,27.2,16.5,27.1,16.4z"/>
		<path class="st0" d="M27.4,21.1c-0.1,0-0.1,0-0.2-0.1s0-0.1,0-0.2l0.9-4.3c0-0.1,0-0.1,0.1-0.2s0.1-0.1,0.2-0.1h1.3
			c0.1,0,0.1,0,0.2,0.1c0,0,0,0.1,0,0.2l-0.1,0.3c0.1-0.1,0.2-0.2,0.3-0.3c0.1-0.1,0.3-0.2,0.4-0.2c0.2-0.1,0.4-0.1,0.6-0.1
			c0.4,0,0.6,0.1,0.9,0.2s0.4,0.3,0.4,0.6c0.2-0.2,0.4-0.4,0.6-0.5c0.2-0.1,0.5-0.2,0.8-0.2c0.3,0,0.6,0.1,0.9,0.2
			c0.2,0.1,0.4,0.4,0.5,0.7s0.1,0.7,0,1.2l-0.5,2.6c0,0.1,0,0.1-0.1,0.2c-0.1,0-0.1,0.1-0.2,0.1h-1.3c-0.1,0-0.1,0-0.2-0.1
			c0,0,0-0.1,0-0.2l0.5-2.5c0-0.2,0-0.3,0-0.4s-0.1-0.2-0.1-0.2s-0.2-0.1-0.3-0.1c-0.1,0-0.2,0-0.3,0.1c-0.1,0-0.2,0.1-0.2,0.2
			s-0.1,0.2-0.2,0.4l-0.5,2.5c0,0.1,0,0.1-0.1,0.2c-0.1,0-0.1,0.1-0.2,0.1h-1.3c-0.1,0-0.1,0-0.2-0.1s0-0.1,0-0.2l0.5-2.5
			c0-0.2,0-0.3,0-0.4s-0.1-0.2-0.1-0.2c-0.1,0-0.1-0.1-0.2-0.1c-0.1,0-0.2,0-0.3,0.1c-0.1,0-0.2,0.1-0.2,0.2s-0.1,0.2-0.2,0.4
			L29,20.9c0,0.1,0,0.1-0.1,0.2c-0.1,0-0.1,0.1-0.2,0.1H27.4z"/>
	</g>
	<g>
		<path class="st1" d="M9.5,4.8c0.4-0.3,0.8-0.7,1.1-1c0.5-0.6,0.9-1.2,1.2-1.9c0.1-0.2,0.2-0.4,0.1-0.7c0-0.1,0-0.3,0.1-0.3
			c0.2-0.1,0.3,0,0.4,0.1c0.1,0.1,0.2,0.2,0.2,0.3c0.1,0.3,0.3,0.5,0.5,0.6c0.5,0.2,1,0.5,1.5,0.6c0.1,0,0.2,0.1,0.3-0.1
			s0.4-0.2,0.5,0c0.2,0.4,0.5,0.4,0.8,0.5C16.7,3,17.1,3,17.6,3.1c0.1,0,0.2,0,0.3-0.1c0.2-0.3,0.5-0.3,0.6,0s0.3,0.3,0.6,0.3
			c0.7,0,1.4,0,2.2,0c0.2,0,0.3,0,0.3-0.2C21.7,3,21.8,2.8,22,2.9c0.2,0,0.3,0.1,0.3,0.3c0,0.1,0.1,0.1,0.2,0.1
			c0.7,0,1.4-0.2,2.1-0.2c0.1,0,0.2-0.1,0.2-0.2c0.1-0.2,0.2-0.3,0.4-0.4c0.2,0,0.3,0.1,0.4,0.3c0,0.1,0.1,0.1,0.2,0
			c0.6-0.2,1.1-0.3,1.7-0.5c0.1,0,0.2-0.1,0.2-0.2c0-0.2,0.1-0.3,0.2-0.4c0.2-0.2,0.4-0.2,0.5,0s0.2,0.1,0.3,0.1
			c0.6-0.3,1.1-0.7,1.6-1.1c0.1-0.1,0.2-0.3,0.3-0.4c0-0.1,0.1-0.2,0.2-0.3c0.2-0.1,0.4,0,0.5,0.2c0.1,1.3,0.8,2.2,1.6,3.2
			c0,0.1,0.1,0.1,0.1,0.2c-1-0.2-2-0.1-3.1,0.3c0.1-0.5,0.3-1,0.5-1.4c0-0.1,0.1-0.2,0.2-0.3c0.2-0.3,0.1-0.5-0.3-0.6
			c-0.5-0.1-0.9,0.1-1.3,0.3c-0.9,0.6-1.6,1.5-2.1,2.4c-0.1,0.2-0.3,0.3-0.5,0.4c-2.7,0.4-5.4,0.5-8.1,0.4c-1.3,0-2.6-0.1-3.9-0.2
			c-0.1,0-0.2,0-0.3-0.2c-0.7-1.2-2.7-1.2-3.5,0c-0.1,0.1-0.2,0.2-0.3,0.2c-0.3,0-0.6,0-1,0C9.5,4.9,9.5,4.8,9.5,4.8z"/>
		<path class="st2" d="M32.6,12.9c-0.2,0.2-0.3,0.3-0.5,0.5c-1.3,1.2-3.1,0.7-3.6-1c-0.2-0.8-0.3-1.6-0.1-2.4
			c0.3-1.9,1.1-3.5,2.4-4.8c0.1-0.2,0.3-0.3,0.5-0.4c0.4-0.3,0.8-0.6,1.4-0.4c0.7,0.2,1.3,0.5,1.7,1.2c0.1,0.2,0.2,0.4,0.2,0.6
			c0,0.6-0.1,1.1-0.3,1.6c-0.2,0.4-0.4,0.5-0.7,0.3c-0.3-0.1-0.5-0.4-0.5-0.8c0-0.1,0.1-0.2,0.1-0.4c0.1-0.3,0.1-0.6,0.1-0.9
			c0-0.1,0-0.3-0.1-0.4c-0.3-0.1-0.4,0.1-0.5,0.1c-0.8,0.6-1.4,1.4-1.8,2.3c-0.6,1.1-1,2.3-0.9,3.5c0,0.4,0.1,0.7,0.2,1
			c0.1,0.2,0.3,0.3,0.5,0.2c0.3-0.1,0.6-0.3,0.8-0.6c0.5-0.4,0.9-1,1.4-1.6c-0.4,0.1-0.8,0.1-1.2,0.1c-0.5,0-0.9-0.3-1-0.7
			c-0.1-0.2,0-0.4,0.3-0.5c1.2-0.2,2.5-0.4,3.7-0.5c0.5,0,1,0.3,1.1,0.8c0.1,0.3,0,0.4-0.3,0.4c-0.2,0-0.5-0.1-0.7,0.1
			c-0.1,0.2-0.1,0.4-0.2,0.6c-0.3,1.3-0.7,2.6-0.8,3.9c0,0.3-0.2,0.4-0.5,0.4c-0.4-0.1-0.7-0.5-0.8-0.9
			C32.4,13.9,32.6,13.4,32.6,12.9z"/>
		<path class="st3" d="M3.2,14.3c-0.9,0-1.7-0.2-2.3-0.9c-0.3-0.3-0.6-0.7-0.5-1.2c0-0.2,0.1-0.3,0.3-0.2c0.9,0.7,1.9,0.7,2.9,0.5
			c0.8-0.1,1.5-0.3,2.1-0.7C5.8,11.7,6,11.7,6,11.5c0-0.1-0.2-0.2-0.4-0.3C5,11,4.5,10.8,3.9,10.5c-0.5-0.2-1-0.5-1.4-0.8
			C2,9.3,1.6,8.8,1.5,8.1C1.4,7.4,1.6,6.8,2.1,6.3c0.8-1,1.8-1.6,3-2C5.6,4.1,6,4,6.6,4c0.3,0,0.6,0.1,0.9,0.4C7.7,4.7,7.9,5,8,5.4
			c0.2,0.3,0.1,0.6,0,1c-0.3,0.8-0.8,1.4-1.3,2c-0.1,0.1-0.3,0.1-0.5,0c-0.3-0.2-0.5-0.6-0.3-1C6.1,6.9,6.4,6.5,6.5,6
			c0-0.1,0.1-0.2,0-0.3s-0.2,0-0.3,0c-1.3,0.4-2.5,1-3.4,2C2.5,8,2.5,8.1,2.9,8.3c0.6,0.4,1.3,0.7,1.9,1s1.1,0.6,1.6,1
			c0.4,0.4,0.6,0.8,0.7,1.3c0.2,0.6,0,1.1-0.4,1.5c-0.6,0.6-1.4,0.9-2.2,1.1C4.2,14.2,3.7,14.3,3.2,14.3z"/>
		<path class="st4" d="M29.3,2.4C29.5,2.2,29.7,2,30,1.9c0.1,0,0.2,0,0.3,0.1c0.1,0.1,0,0.2-0.1,0.2c-1.4,1.9-2,4.1-2.5,6.4
			c-0.3,1.5-0.6,3-0.7,4.6c-0.1,0.6-0.2,0.8-0.6,0.9s-0.9-0.2-1.2-0.6c-0.5-0.9-0.7-1.8-1.1-2.7c-0.2-0.5-0.4-1.1-0.6-1.7
			c-0.2,0.6-0.3,1.1-0.4,1.7c-0.2,1.1-0.4,2.2-0.5,3.4c-0.1,0.5-0.2,0.6-0.7,0.5c-0.7-0.2-0.9-0.5-0.8-1.2c0.3-2.4,0.9-4.8,1.5-7.1
			c0.1-0.3,0.3-0.4,0.5-0.3c0.6,0.1,1.2,0.5,1.3,1.2c0.3,1.3,0.7,2.6,1.2,3.8c0,0.1,0,0.3,0.2,0.2c0.1-0.1,0.2-0.3,0.3-0.4
			c0.2-0.5,0.3-1.1,0.4-1.6c0.4-1.8,0.9-3.6,1.8-5.3C28.6,3.3,29,2.9,29.3,2.4z"/>
		<path class="st4" d="M18.9,12.8c-0.2,0.3-0.4,0.5-0.5,0.7c-1,1.2-2.7,1-3.3-0.5c-0.3-0.7-0.3-1.5-0.2-2.2c0.1-1.6,0.6-3.1,1-4.6
			c0.1-0.3,0.3-0.4,0.6-0.4c0.2,0,0.4,0.1,0.6,0.3c0.4,0.3,0.5,0.5,0.3,1c-0.5,1.2-0.8,2.5-0.9,3.8c-0.1,0.6-0.1,1.3,0.1,1.9
			c0.1,0.4,0.2,0.4,0.4,0.1c0.7-0.7,1.2-1.5,1.6-2.4c0.6-1.3,1.1-2.6,1.3-4C20,6.1,20.2,6,20.6,6.1c0.1,0,0.3,0.1,0.4,0.2
			c0.5,0.3,0.5,0.4,0.4,1c-0.5,1.8-0.9,3.6-1.1,5.5c0,0.4-0.1,0.7-0.1,1.1c0,0.3-0.2,0.4-0.5,0.4c-0.5-0.1-0.9-0.6-0.9-1.1
			C18.9,13,18.9,12.9,18.9,12.8z"/>
		<path class="st5" d="M26.3,10.9c-0.2,0-0.2,0.3-0.4,0.3c0.2-1.5,0.5-2.9,1-4.4c0.4-1.1,0.8-2.2,1.5-3.2c0.3-0.4,0.6-0.9,1-1.2
			c0,0.1,0,0.2-0.1,0.3c-0.3,0.4-0.5,0.7-0.8,1.1c-1,1.8-1.6,3.8-1.9,5.8C26.5,10,26.3,10.4,26.3,10.9z"/>
		<path class="st6" d="M9.9,4.7C10.8,3.9,11.5,3,12,1.9C12,2.6,10.7,4.5,9.9,4.7z"/>
		<path class="st7" d="M31.3,1.1c0.3,0.7,0.7,1.4,1.1,2C31.9,2.5,31.4,1.9,31.3,1.1z"/>
		<path class="st8" d="M13,2.1c0.6,0.3,1.2,0.5,1.9,0.7C14.4,2.9,13.3,2.4,13,2.1z"/>
		<path class="st9" d="M16,3.1c0.6,0.1,1.2,0.2,1.8,0.3C17.2,3.4,16.5,3.3,16,3.1C15.9,3.1,16,3.1,16,3.1z"/>
		<path class="st10" d="M12.2,1.2c0.1,0.3,0.2,0.5,0.2,0.8h-0.1C12.2,1.7,12.1,1.5,12.2,1.2z"/>
		<path class="st11" d="M31.1,0.2c0.1,0.3,0,0.5-0.2,0.7C31,0.7,31,0.5,31.1,0.2z"/>
		<path class="st12" d="M15.3,3.3c-0.1-0.2-0.2-0.5-0.1-0.8C15.4,2.8,15.3,3.1,15.3,3.3z"/>
		<path class="st13" d="M18.3,3.8c-0.1-0.2-0.1-0.4-0.1-0.7C18.4,3.3,18.3,3.6,18.3,3.8z"/>
		<path class="st14" d="M22.3,3.2c0.1,0.3,0,0.5,0,0.6C22.1,3.7,22.1,3.6,22.3,3.2z"/>
		<path class="st15" d="M28.3,1.9c0.1,0.2,0.1,0.4,0,0.6C28.2,2.3,28.2,2.1,28.3,1.9z"/>
		<path class="st16" d="M25.4,2.8c0.2,0.2,0.1,0.4,0,0.6h-0.1C25.4,3.2,25.4,3,25.4,2.8z"/>
		<path class="st17" d="M28.7,11c-0.2-1.5,0.9-3.9,1.8-4.9c-0.5,0.8-0.9,1.5-1.2,2.4C29,9.2,28.8,10.1,28.7,11z"/>
		<path class="st18" d="M33,12.8c-0.1,0.4-0.2,0.9-0.3,1.3C32.8,13.7,32.8,13.3,33,12.8L33,12.8z"/>
		<path class="st19" d="M28.7,11.3c0.1,0.2,0.1,0.3,0.1,0.5C28.7,11.7,28.7,11.5,28.7,11.3z"/>
		<path class="st20" d="M3.7,12.9c0.7-0.2,1.4-0.4,2.1-0.7C5.1,12.6,4.4,12.9,3.7,12.9z"/>
		<path class="st21" d="M3.6,5.3C3,5.8,2.4,6.2,1.9,6.8C2.4,6.1,3,5.7,3.6,5.3z"/>
		<path class="st22" d="M6,4.4C5.5,4.6,5,4.7,4.5,5C4.8,4.7,5.5,4.4,6,4.4z"/>
		<path class="st23" d="M14.1,11.1c0.2,0,0.4,0,0.4-0.3S14.2,10.1,14,10s-0.2-0.2-0.2-0.3c0-1.2,0-2.4,0.1-3.7
			c0.2-0.6-0.2-0.9-0.7-1.1c-0.1-0.1-0.3-0.1-0.4-0.2c-0.2-0.1-0.5-0.1-0.7,0.1c0,0-0.1,0.1-0.1,0c-0.4-0.1-0.5,0.1-0.6,0.4
			c-0.9,1.6-1.7,3.3-2.3,5c-0.2,0.4-0.4,0.6-0.8,0.6H8.2c-0.3,0-0.3,0.1-0.3,0.3s0.2,0.4,0.3,0.6c0.1,0.1,0.1,0.2,0.1,0.4
			c-0.1,0.4-0.3,0.8-0.4,1.1c-0.1,0.5,0.1,0.9,0.6,1.2c0.4,0.2,0.6,0.1,0.7-0.3c0.2-0.7,0.5-1.4,0.7-2.1c0.1-0.2,0.1-0.2,0.3-0.3
			c0.6-0.1,1.2-0.2,1.9-0.3c0.2,0,0.3,0,0.3,0.2c0,0.1,0,0.2,0,0.3c0.1,0.6,0.1,1.3,0.3,1.9c0.1,0.5,0.6,0.8,1.1,0.8
			c0.4,0,0.5-0.2,0.5-0.6c-0.2-0.9-0.3-1.7-0.4-2.6C13.8,11.1,13.9,11,14.1,11.1z M12.2,9.9c-0.1,0.2-0.4,0.1-0.7,0.1
			c-0.2,0-0.5,0.1-0.7,0.1s-0.2,0-0.1-0.2c0.4-1.1,0.9-2.1,1.5-3.2c0,0,0,0,0.1-0.1c0,0.9-0.1,1.7-0.1,2.5
			C12.2,9.5,12.3,9.8,12.2,9.9z"/>
		<path class="st24" d="M11.4,5.5c-0.8,1.6-1.6,3.3-2.3,5C9.7,8.8,10.5,7.1,11.4,5.5z"/>
		<path class="st25" d="M12.5,7.2c0,1,0,1.8,0,2.7C12.4,9.7,12.4,7.9,12.5,7.2z"/>
		<path class="st26" d="M12.6,11.3c0.1,0.6,0.1,1.2,0.2,1.8C12.7,12.5,12.6,11.9,12.6,11.3L12.6,11.3z"/>
		<path class="st27" d="M8.1,13.1c0.1-0.4,0.2-0.8,0.4-1.2C8.5,12.4,8.3,12.7,8.1,13.1z"/>
		<path class="st28" d="M26.3,10.9c0-0.6,0.2-1.2,0.3-1.8c0.3-1.7,0.8-3.3,1.6-4.8c0.1-0.1,0.1-0.3,0.3-0.4c0,0.1,0,0.2-0.1,0.2
			c-1,1.8-1.5,3.8-1.9,5.9C26.5,10.2,26.4,10.5,26.3,10.9z"/>
		<path class="st29" d="M22.8,7.7c-0.4,1.8-0.7,3.5-1.1,5.3C21.9,11.2,22.2,9.4,22.8,7.7C22.8,7.6,22.8,7.6,22.8,7.7z"/>
		<path class="st30" d="M22.8,7.7C22.7,7.7,22.7,7.7,22.8,7.7c0-0.2,0-0.4,0.1-0.6C22.9,7.4,22.9,7.5,22.8,7.7z"/>
		<path class="st31" d="M15.7,7.8c-0.3,1.2-0.5,2.5-0.5,3.9C15,11,15.4,8.8,15.7,7.8z"/>
		<path class="st32" d="M18.6,11.2c-0.1,0.4-0.5,1.1-0.9,1.4C18.1,12.1,18.4,11.7,18.6,11.2z"/>
		<path class="st33" d="M15.2,11.9c0.1,0.2,0.1,0.3,0.1,0.4C15.1,12.2,15.1,12.1,15.2,11.9z"/>
	</g>
	<path class="st34" d="M25,18.5l-1.6-0.9c-0.2-0.1-0.3,0-0.3,0.2v1.8c0,0.2,0.2,0.3,0.3,0.2l1.6-0.9C25.2,18.8,25.2,18.6,25,18.5z"
		/>
</g>
<image style="overflow:visible;" width="447" height="303" xlink:href="28C9D192.jpg"  transform="matrix(1 0 0 1 -205.35 -6712)">
</image>
</svg>
